<svg xmlns="http://www.w3.org/2000/svg" width="109" height="28" viewBox="0 0 109 28">
    <path fill="#FF0068" fill-rule="evenodd" d="M7.26 6.25v4.118c.563 0 1.102.005 1.64 0 1.172-.013 2.345.003 3.515-.054 1.274-.062 1.938-.646 2.078-1.718.168-1.297-.502-2.207-1.925-2.3-1.748-.115-3.51-.057-5.266-.073-.01 0-.018.012-.043.027zm0 15.527c.238 0 .456.002.673 0 1.748-.021 3.499.009 5.243-.08 1.42-.072 2.177-.82 2.346-2.094.187-1.415-.406-2.404-1.718-2.807a3.958 3.958 0 0 0-1.09-.178c-1.772-.024-3.544-.02-5.316-.025-.044 0-.087.014-.139.024v5.16zm10.304-8.308c.497.215 1.005.405 1.487.647 1.782.9 3.092 2.238 3.541 4.225.794 3.512-.498 7.236-4.471 8.797-1.662.654-3.391.853-5.153.857-4.1.01-8.199.003-12.298.003-.555 0-.67-.111-.67-.653V.651c0-.547.106-.65.666-.65 3.86 0 7.721-.004 11.582.002 1.773.003 3.512.207 5.19.848 2.547.974 4.133 3.154 4.283 5.875.116 2.114-.46 3.953-2.065 5.372-.546.483-1.226.813-1.846 1.21-.066.042-.145.065-.215.101-.015.009-.02.038-.031.06zm24.65 2.588c0-.25.006-.416-.001-.583-.23-4.958-.194-9.92-.189-14.882 0-.453.135-.585.593-.586 1.845-.001 3.69-.002 5.536 0 .442 0 .583.147.583.604.002 3.38.002 6.761-.003 10.142 0 .13-.026.284-.098.384-1.452 2.009-1.95 4.294-1.943 6.735.005 1.855.286 3.65 1.103 5.328.228.47.535.902.792 1.358.074.132.141.29.144.438.013.86-.002 1.72.01 2.579.004.316-.134.427-.43.426-2.14-.004-4.28.004-6.419-.015-.165 0-.39-.138-.485-.282-1.933-2.893-3.851-5.795-5.772-8.697l-4.061-6.136c-.047-.07-.108-.132-.223-.273v.414l.077 14.438c.004.549 0 .549-.547.549h-5.503c-.467 0-.489-.02-.489-.476V.638c0-.56.075-.632.63-.632 1.88 0 3.759.005 5.638-.006.28-.002.451.086.61.327 2.599 3.943 5.208 7.88 7.816 11.818.806 1.217 1.61 2.436 2.418 3.652.046.07.106.13.213.26zm30.842 2.578l-1.407 2.673c-.303.577-.61 1.153-.902 1.735-.124.244-.298.347-.58.346-3.218-.008-6.435-.002-9.652-.012-1.207-.004-2.377-.204-3.44-.799-1.35-.755-1.956-1.952-2.112-3.463h.444c3.263 0 6.527-.002 9.791.004.233 0 .37-.054.496-.268a501.456 501.456 0 0 1 3.043-5.068c.111-.183.1-.31-.01-.49-2.551-4.176-5.096-8.355-7.64-12.534-.277-.453-.105-.754.44-.754C63.888 0 66.252.005 68.614 0c.293 0 .47.113.614.36 1.509 2.62 3.026 5.234 4.542 7.85.033.057.07.113.145.236.156-.288.284-.532.418-.773C75.69 5.232 77.05 2.793 78.4.349c.141-.256.331-.35.62-.349 2.257.005 4.515 0 6.772.005.552 0 .717.291.435.75-2.546 4.138-5.09 8.278-7.649 12.41-.177.286-.168.478.01.758 2.777 4.389 5.542 8.784 8.308 13.179.055.087.115.173.16.265.141.293.005.556-.323.614-.103.019-.21.012-.315.012-2.34 0-4.68-.007-7.02.007-.385.002-.623-.119-.822-.443-1.762-2.871-3.538-5.734-5.31-8.6-.053-.086-.11-.17-.21-.322zm28.585-12.629V27.24c0 .672-.089.76-.765.76h-5.817c-.59 0-.686-.098-.686-.695V6.006H87.76c-.546 0-.648-.105-.649-.658V.632c0-.507.119-.631.613-.631h20.56c.497 0 .604.114.604.632v4.75c0 .519-.101.623-.61.623H101.641zM54.964 14.52c-.037-1.465.966-2.992 3.092-3.102.563-.03 1.12 0 1.643.193 1.049.386 1.542 1.133 1.481 2.201-.04.708-.04.708-.836.708h-5.38z"/>
</svg>
